<?xml version="1.0" encoding="UTF-8" standalone="no"?>
<!-- Created with Inkscape (http://www.inkscape.org/) -->

<svg
   width="150mm"
   height="150mm"
   viewBox="0 0 150 150"
   version="1.1"
   id="svg1"
   xml:space="preserve"
   inkscape:version="1.4.2 (f4327f4, 2025-05-13)"
   sodipodi:docname="icon.svg"
   inkscape:export-filename="icon.png"
   inkscape:export-xdpi="86.698669"
   inkscape:export-ydpi="86.698669"
   xmlns:inkscape="http://www.inkscape.org/namespaces/inkscape"
   xmlns:sodipodi="http://sodipodi.sourceforge.net/DTD/sodipodi-0.dtd"
   xmlns="http://www.w3.org/2000/svg"
   xmlns:svg="http://www.w3.org/2000/svg"><sodipodi:namedview
     id="namedview1"
     pagecolor="#ffffff"
     bordercolor="#111111"
     borderopacity="1"
     inkscape:showpageshadow="0"
     inkscape:pageopacity="0"
     inkscape:pagecheckerboard="1"
     inkscape:deskcolor="#d1d1d1"
     inkscape:document-units="mm"
     inkscape:zoom="1"
     inkscape:cx="149"
     inkscape:cy="296.5"
     inkscape:window-width="1920"
     inkscape:window-height="1009"
     inkscape:window-x="-8"
     inkscape:window-y="-8"
     inkscape:window-maximized="1"
     inkscape:current-layer="g26"><inkscape:page
       x="0"
       y="0"
       width="150"
       height="150"
       id="page27"
       margin="0"
       bleed="0" /></sodipodi:namedview><defs
     id="defs1" /><g
     inkscape:label="Layer 1"
     inkscape:groupmode="layer"
     id="layer1"
     transform="translate(-68.933326,-36.918747)"><g
       id="g26"
       transform="translate(8.6177692,11.192952)"><path
         style="fill:#0225da;fill-opacity:1;stroke-width:0.264583"
         d="M 99.617707,38.712646 99.800689,122.25554 62.997714,99.621707 Z"
         id="path20"
         sodipodi:nodetypes="cccc" /><path
         style="fill:#0b0098;fill-opacity:1;stroke-width:0.264583"
         d="M 98.696599,162.37078 136.05161,141.5771 63.549759,99.989737 Z"
         id="path21" /><path
         style="fill:#cafcf0;fill-opacity:1;stroke-width:0.264583"
         d="m 98.328569,162.37078 72.869881,-41.21933 -0.55204,42.1394 z"
         id="path22"
         sodipodi:nodetypes="cccc" /><path
         style="fill:#cae5fc;fill-opacity:1;stroke-width:0.264583"
         d="m 170.4624,162.7388 0.73605,-82.438653 36.43495,20.793683 z"
         id="path23"
         sodipodi:nodetypes="cccc" /><path
         style="fill:#8baffe;fill-opacity:1;stroke-width:0.264583"
         d="M 207.08135,101.09383 135.68358,59.690477 171.56648,38.8968 Z"
         id="path24" /><path
         style="fill:#5495ff;fill-opacity:1;stroke-width:0.184015"
         d="m 132.46333,139.52458 c -1.66994,-0.9741 -3.20186,-1.86433 -3.40428,-1.97829 -1.24557,-0.70127 -10.78309,-6.17103 -11.42118,-6.55005 -0.42597,-0.25302 -2.41922,-1.39709 -4.42944,-2.54238 -2.01023,-1.14528 -3.77916,-2.15562 -3.93098,-2.24519 -1.28759,-0.7597 -4.00811,-2.32391 -4.23066,-2.4325 -0.15273,-0.0745 -1.39559,-0.78046 -2.7619,-1.56874 l -2.4842,-1.43324 -0.04681,-20.05332 -0.04681,-20.053316 2.23876,-1.287793 c 1.23131,-0.708287 2.88763,-1.660425 3.68069,-2.11586 0.79307,-0.455438 2.20809,-1.27685 3.14449,-1.825363 0.9364,-0.548513 2.24079,-1.300509 2.89865,-1.6711 1.76249,-0.992876 2.37569,-1.347862 3.88293,-2.24786 0.74882,-0.447133 2.27236,-1.337631 3.38565,-1.978888 1.11329,-0.641255 3.18346,-1.842921 4.60038,-2.670368 1.41691,-0.827445 3.52848,-2.049992 4.69238,-2.716771 1.16389,-0.666776 2.44739,-1.411943 2.85223,-1.655929 0.40483,-0.243983 1.62032,-0.960083 2.70109,-1.591331 l 1.96504,-1.147723 1.34723,0.761222 c 0.74097,0.418672 1.63705,0.934001 1.99128,1.145178 0.68774,0.409993 2.70314,1.574223 5.98049,3.454715 1.11329,0.638788 2.39679,1.385178 2.85223,1.658641 0.81743,0.490823 2.39207,1.403987 6.34851,3.681621 1.11329,0.640898 3.18346,1.84163 4.60037,2.668299 1.41692,0.826667 3.48708,2.02742 4.60037,2.668336 4.07748,2.347389 5.53686,3.198014 6.28219,3.66167 0.41895,0.260625 0.91579,0.565695 1.10408,0.677928 0.33027,0.196855 0.34349,0.93771 0.37431,20.977692 0.0176,11.4255 -0.009,20.62872 -0.0595,20.45161 -0.0503,-0.17711 -0.11994,-0.32203 -0.15476,-0.32203 -0.0348,0 -0.6705,0.35795 -1.41262,0.79543 -0.74212,0.43749 -1.84615,1.067 -2.4534,1.39891 -0.60725,0.3319 -1.93216,1.0804 -2.94424,1.66332 -3.83623,2.20951 -7.10484,4.05498 -7.182,4.05498 -0.044,0 -0.5991,0.31604 -1.23344,0.70232 -0.63433,0.38627 -1.77438,1.03841 -2.53344,1.44919 -0.75906,0.41079 -1.87695,1.0358 -2.4842,1.38891 -0.60725,0.35311 -1.51813,0.86941 -2.02417,1.14732 -0.50604,0.27792 -1.74814,0.98155 -2.76022,1.56363 -3.87292,2.22745 -7.10477,4.05347 -7.17416,4.05347 -0.0397,0 -0.76041,0.41387 -1.60147,0.91972 -0.84106,0.50585 -1.57061,0.91866 -1.62121,0.91737 -0.0506,-0.001 -1.45832,-0.79934 -3.12825,-1.77344 z"
         id="path25" /><path
         style="fill:#004eff;fill-opacity:1;stroke-width:0.264583"
         d="M 99.616674,38.712785 99.432659,80.852187 171.7505,38.8968 Z"
         id="path19" /></g></g></svg>
